<svg xmlns="http://www.w3.org/2000/svg" width="1024" height="1024" fill="none"><defs><clipPath id="b"><path fill="#fff" fill-opacity="0" d="M112 112h800v800H112z"/></clipPath><clipPath id="a"><rect width="1024" height="1024" fill="#fff" fill-opacity="0" rx="128"/></clipPath></defs><rect width="1024" height="1024" fill="#1E161E" rx="128"/><g clip-path="url(#a)"><g clip-path="url(#b)"><path fill="#EEBC84" d="M649.5 359.5c30-30 62.5-75 62.5-122.5 0-27.5-7.5-50-25-67.5C654.5 137 597 137 532 137h-47.5c-62.5 0-112.5 0-145 30-17.5 17.5-25 40-25 70 0 50 32.5 92.5 60 122.5-110 57.5-185 172.5-185 290 0 217.5 220 217.5 325 217.5s325 0 325-217.5c0-120-77.5-232.5-190-290Zm-60 205c15 0 25 10 25 25s-10 25-25 25h-50v25h50c15 0 25 10 25 25s-10 25-25 25h-50V742c0 15-10 25-25 25s-25-10-25-25v-52.5h-50c-15 0-25-10-25-25s10-25 25-25h50v-25h-50c-15 0-25-10-25-25s10-25 25-25h50v-15l-70-67.5c-10-10-10-25 0-35s25-10 35 0l62.5 60 62.5-60c10-10 25-10 35 0s10 25 0 35l-75 72.5v10h50Z"/></g></g></svg>